<?xml version="1.0" standalone="no"?>
<!DOCTYPE svg PUBLIC "-//W3C//DTD SVG 20010904//EN"
 "http://www.w3.org/TR/2001/REC-SVG-20010904/DTD/svg10.dtd">
<svg version="1.0" xmlns="http://www.w3.org/2000/svg"
 width="16.000000pt" height="16.000000pt" viewBox="0 0 16.000000 16.000000"
 preserveAspectRatio="xMidYMid meet">
<metadata>
Created by potrace 1.11, written by Peter Selinger 2001-2013
</metadata>
<g transform="translate(0.000000,16.000000) scale(0.016000,-0.016000)"
fill="#000000" stroke="none">
<path d="M380 830 c-30 -11 -57 -21 -60 -22 -3 0 -22 6 -42 15 -80 36 -169 12
-204 -54 -29 -57 -4 -145 58 -200 12 -11 17 -29 16 -60 -5 -138 72 -263 201
-327 49 -24 68 -27 151 -27 89 0 99 2 158 34 121 66 199 198 190 324 -2 30 3
43 25 63 36 33 67 96 67 136 0 42 -31 93 -69 113 -41 21 -109 19 -154 -4 -37
-19 -37 -19 -92 4 -74 30 -171 32 -245 5z m244 -43 c69 -32 116 -75 152 -139
26 -48 29 -62 29 -148 0 -74 -4 -103 -19 -130 -35 -67 -84 -116 -147 -150 -56
-30 -72 -33 -140 -33 -126 0 -226 62 -287 178 -36 69 -38 186 -4 260 41 88
137 170 216 182 17 3 32 6 34 8 11 10 124 -9 166 -28z m-371 -23 c3 -3 -3 -16
-15 -28 -11 -11 -33 -43 -48 -70 -26 -45 -29 -47 -39 -28 -15 28 -14 74 2 94
24 31 82 49 100 32z m556 -5 c17 -6 36 -19 41 -29 14 -25 12 -70 -3 -98 -13
-22 -13 -22 -31 15 -10 20 -31 54 -47 74 -38 49 -26 61 40 38z"/>
<path d="M301 534 c-40 -51 -20 -124 34 -124 41 0 74 72 52 115 -22 43 -57 46
-86 9z"/>
<path d="M607 548 c-42 -31 -14 -138 35 -138 37 0 50 15 54 60 2 34 -2 47 -21
66 -27 27 -43 30 -68 12z"/>
<path d="M451 411 c-11 -7 -9 -14 12 -34 34 -31 34 -45 0 -58 -23 -9 -30 -7
-44 10 -9 11 -19 17 -23 14 -3 -4 1 -15 11 -25 17 -19 68 -25 78 -8 4 7 14 6
28 -2 12 -7 31 -11 42 -9 29 4 62 51 36 51 -5 0 -11 -9 -14 -20 -6 -25 -38
-26 -60 -2 -16 17 -15 20 13 47 27 26 29 30 13 37 -26 10 -76 9 -92 -1z"/>
</g>
</svg>
